<?xml version="1.0"?>
<svg xmlns="http://www.w3.org/2000/svg" id="Capa_1" enable-background="new 0 0 512 512" height="512px" viewBox="0 0 512 512" width="512px" class=""><g><g><circle cx="256" cy="106" r="15" data-original="#000000" class="active-path" fill="#000000"/><circle cx="376" cy="106" r="15" data-original="#000000" class="active-path" fill="#000000"/><circle cx="316" cy="76" r="15" data-original="#000000" class="active-path" fill="#000000"/><circle cx="196" cy="76" r="15" data-original="#000000" class="active-path" fill="#000000"/><circle cx="136" cy="106" r="15" data-original="#000000" class="active-path" fill="#000000"/><path d="m512 301c0-28.263-19.649-52.009-46-58.334v-31.666c8.284 0 15-6.716 15-15v-31c0-90.981-74.019-165-165-165h-120c-90.981 0-165 74.019-165 165v31c0 8.284 6.716 15 15 15v31.666c-26.351 6.325-46 30.071-46 58.334s19.649 52.009 46 58.334v31.666c-8.284 0-15 6.716-15 15v31c0 41.355 33.645 75 75 75h300c41.355 0 75-33.645 75-75v-31c0-7.947-6.184-14.433-14-14.949v-31.949c25.849-6.678 45-30.196 45-58.102zm-121 90v-30h46v30zm91-90c0 16.542-13.458 30-30 30h-61v-60h61c16.542 0 30 13.458 30 30zm-421-136c0-74.439 60.561-135 135-135h120c74.439 0 135 60.561 135 135v16h-390zm375 46v30h-60c-8.284 0-15 6.716-15 15v150c0 8.271-6.729 15-15 15s-15-6.729-15-15v-150c0-8.284-6.716-15-15-15h-90c-8.284 0-15 6.716-15 15 0 8.271-6.729 15-15 15s-15-6.729-15-15c0-8.284-6.716-15-15-15h-90v-30zm-406 90c0-16.542 13.458-30 30-30h93.57c6.19 17.461 22.873 30 42.43 30s36.239-12.539 42.43-30h62.57v60h-241c-16.542 0-30-13.458-30-30zm46 60h225v30h-225zm375 76c0 24.813-20.187 45-45 45h-300c-24.813 0-45-20.187-45-45v-16h242.58c6.192 17.459 22.865 30 42.42 30s36.228-12.541 42.42-30h62.58z" data-original="#000000" class="active-path" fill="#000000"/></g></g> </svg>
